<svg width="377" height="105" viewBox="0 0 377 105" fill="none" xmlns="http://www.w3.org/2000/svg">
<path d="M98.844 39.744V33.318H110.076C111.948 33.318 113.388 32.85 114.396 31.914C115.404 30.978 115.908 29.682 115.908 28.026C115.908 26.406 115.368 25.146 114.288 24.246C113.244 23.31 111.84 22.842 110.076 22.842H98.844V16.632H109.374C110.382 16.632 111.246 16.47 111.966 16.146C112.722 15.786 113.316 15.3 113.748 14.688C114.18 14.04 114.396 13.302 114.396 12.474C114.396 11.214 113.928 10.224 112.992 9.504C112.092 8.748 110.886 8.37 109.374 8.37H98.844V1.944H109.374C113.046 1.944 115.926 2.88 118.014 4.752C120.102 6.624 121.146 9.018 121.146 11.934C121.146 13.338 120.822 14.634 120.174 15.822C119.526 16.974 118.644 17.928 117.528 18.684C116.412 19.44 115.17 19.89 113.802 20.034V18.738C115.494 18.774 117.024 19.242 118.392 20.142C119.796 21.006 120.894 22.176 121.686 23.652C122.514 25.092 122.928 26.73 122.928 28.566C122.928 31.95 121.848 34.668 119.688 36.72C117.528 38.736 114.558 39.744 110.778 39.744H98.844ZM95.28 39.744V1.944H102.3V39.744H95.28Z" fill="white"/>
<path d="M129.262 39.744V0.864002L136.39 0L136.552 0.432001V39.744H129.262Z" fill="white"/>
<path d="M152.787 40.608C150.915 40.608 149.241 40.248 147.765 39.528C146.325 38.808 145.191 37.8 144.363 36.504C143.535 35.208 143.121 33.732 143.121 32.076C143.121 29.412 144.021 27.306 145.821 25.758C147.657 24.174 150.321 23.238 153.813 22.95L164.451 22.032V27.864L154.731 28.674C153.183 28.818 152.085 29.142 151.437 29.646C150.825 30.15 150.519 30.798 150.519 31.59C150.519 32.382 150.897 33.03 151.653 33.534C152.409 34.002 153.363 34.236 154.515 34.236C155.775 34.236 156.909 33.912 157.917 33.264C158.962 32.616 159.789 31.788 160.401 30.78C161.013 29.736 161.319 28.638 161.319 27.486V23.004C161.319 21.456 160.78 20.178 159.7 19.17C158.62 18.162 157.251 17.658 155.595 17.658C154.047 17.658 152.805 18.054 151.869 18.846C150.933 19.602 150.375 20.448 150.195 21.384H149.601L143.445 20.088C143.985 17.64 145.317 15.588 147.441 13.932C149.601 12.276 152.319 11.448 155.595 11.448C159.555 11.448 162.67 12.564 164.938 14.796C167.242 17.028 168.394 20.178 168.394 24.246V39.744H162.076V31.752H164.721C164.289 33.336 163.497 34.812 162.345 36.18C161.229 37.512 159.862 38.592 158.242 39.42C156.622 40.212 154.803 40.608 152.787 40.608Z" fill="white"/>
<path d="M188.947 40.608C186.067 40.608 183.529 39.996 181.333 38.772C179.173 37.548 177.481 35.838 176.257 33.642C175.033 31.446 174.421 28.908 174.421 26.028C174.421 23.148 175.033 20.61 176.257 18.414C177.481 16.218 179.173 14.508 181.333 13.284C183.529 12.06 186.067 11.448 188.947 11.448C191.179 11.448 193.159 11.808 194.887 12.528C196.651 13.212 198.127 14.274 199.315 15.714C200.539 17.154 201.475 18.954 202.123 21.114L196.129 22.788H195.481C195.013 21.276 194.149 20.088 192.889 19.224C191.665 18.324 190.351 17.874 188.947 17.874C187.471 17.874 186.193 18.216 185.113 18.9C184.033 19.548 183.187 20.484 182.575 21.708C181.999 22.896 181.711 24.336 181.711 26.028C181.711 27.684 181.999 29.124 182.575 30.348C183.187 31.572 184.033 32.526 185.113 33.21C186.193 33.858 187.471 34.182 188.947 34.182C189.991 34.182 190.963 33.984 191.863 33.588C192.799 33.192 193.609 32.634 194.293 31.914C194.977 31.158 195.463 30.276 195.751 29.268H196.399L202.393 30.942C201.745 33.102 200.809 34.902 199.585 36.342C198.361 37.782 196.867 38.862 195.103 39.582C193.339 40.266 191.287 40.608 188.947 40.608Z" fill="white"/>
<path d="M213.409 35.424V25.65L225.775 12.312H234.901V12.744L213.409 35.424ZM208.711 39.744V0.864002L215.839 0L216.001 0.432001V39.744H208.711ZM226.909 39.744L217.837 26.244L223.021 21.708L235.063 39.312V39.744H226.909Z" fill="white"/>
<path d="M254.082 40.608C251.994 40.608 250.14 40.176 248.52 39.312C246.9 38.448 245.568 37.35 244.524 36.018C243.516 34.686 242.814 33.318 242.418 31.914V20.034C242.814 18.63 243.516 17.28 244.524 15.984C245.568 14.652 246.9 13.572 248.52 12.744C250.14 11.88 251.994 11.448 254.082 11.448C256.602 11.448 258.852 12.078 260.832 13.338C262.848 14.562 264.432 16.272 265.584 18.468C266.772 20.628 267.366 23.13 267.366 25.974C267.366 28.818 266.772 31.356 265.584 33.588C264.432 35.784 262.848 37.512 260.832 38.772C258.852 39.996 256.602 40.608 254.082 40.608ZM238.422 50.544V12.312H245.172V19.926L243.552 26.028L245.712 32.13V50.544H238.422ZM252.786 34.128C254.262 34.128 255.54 33.786 256.62 33.102C257.7 32.418 258.546 31.464 259.158 30.24C259.77 29.016 260.076 27.612 260.076 26.028C260.076 24.408 259.77 23.004 259.158 21.816C258.546 20.592 257.7 19.638 256.62 18.954C255.54 18.27 254.262 17.928 252.786 17.928C251.346 17.928 250.068 18.27 248.952 18.954C247.872 19.638 247.026 20.592 246.414 21.816C245.802 23.004 245.496 24.408 245.496 26.028C245.496 27.612 245.802 29.016 246.414 30.24C247.026 31.464 247.872 32.418 248.952 33.102C250.068 33.786 251.346 34.128 252.786 34.128Z" fill="white"/>
<path d="M273.677 39.744V12.312H280.967V39.744H273.677ZM277.349 8.856C276.125 8.856 275.081 8.424 274.217 7.56C273.353 6.696 272.921 5.652 272.921 4.428C272.921 3.24 273.353 2.214 274.217 1.35C275.081 0.486002 276.125 0.0540025 277.349 0.0540025C278.537 0.0540025 279.563 0.486002 280.427 1.35C281.291 2.214 281.723 3.24 281.723 4.428C281.723 5.652 281.291 6.696 280.427 7.56C279.563 8.424 278.537 8.856 277.349 8.856Z" fill="white"/>
<path d="M289.426 39.744V0.864002L296.554 0L296.716 0.432001V39.744H289.426Z" fill="white"/>
<path d="M304.905 39.744V0.864002L312.033 0L312.195 0.432001V39.744H304.905Z" fill="white"/>
<path d="M119.876 60.192C119.876 57.5467 119.108 55.4773 117.572 53.984C116.036 52.448 113.924 51.68 111.236 51.68H98.372V46.944H111.236C115.417 46.944 118.767 48.1387 121.284 50.528C123.801 52.9173 125.06 56.1387 125.06 60.192H119.876ZM95.62 91.744V46.944H100.42V91.744H95.62ZM98.372 73.44V68.704H111.236C113.924 68.704 116.036 67.9573 117.572 66.464C119.108 64.928 119.876 62.8373 119.876 60.192H125.06C125.06 64.2027 123.801 67.424 121.284 69.856C118.767 72.2453 115.417 73.44 111.236 73.44H98.372Z" fill="white"/>
<path d="M130.715 91.744V59.744H135.387V69.024L133.979 67.808C134.704 65.3333 136.091 63.3707 138.139 61.92C140.23 60.4693 142.576 59.744 145.179 59.744H148.507V64.416H144.411C142.662 64.416 141.104 64.8427 139.739 65.696C138.416 66.5493 137.371 67.7227 136.603 69.216C135.878 70.7093 135.515 72.4587 135.515 74.464V91.744H130.715Z" fill="white"/>
<path d="M165.587 92.512C162.515 92.512 159.784 91.808 157.395 90.4C155.048 88.992 153.192 87.0293 151.827 84.512C150.504 81.9947 149.843 79.072 149.843 75.744C149.843 72.416 150.504 69.4933 151.827 66.976C153.192 64.4587 155.048 62.496 157.395 61.088C159.784 59.68 162.515 58.976 165.587 58.976C168.701 58.976 171.432 59.68 173.779 61.088C176.125 62.496 177.96 64.4587 179.283 66.976C180.648 69.4933 181.331 72.416 181.331 75.744C181.331 79.072 180.648 81.9947 179.283 84.512C177.96 87.0293 176.125 88.992 173.779 90.4C171.432 91.808 168.701 92.512 165.587 92.512ZM165.587 87.84C167.72 87.84 169.597 87.3493 171.219 86.368C172.883 85.344 174.184 83.936 175.123 82.144C176.061 80.3093 176.531 78.176 176.531 75.744C176.531 73.2693 176.061 71.136 175.123 69.344C174.184 67.552 172.883 66.1653 171.219 65.184C169.597 64.16 167.72 63.648 165.587 63.648C163.453 63.648 161.555 64.16 159.891 65.184C158.269 66.1653 156.989 67.552 156.051 69.344C155.112 71.136 154.643 73.2693 154.643 75.744C154.643 78.176 155.112 80.3093 156.051 82.144C156.989 83.936 158.269 85.344 159.891 86.368C161.555 87.3493 163.453 87.84 165.587 87.84Z" fill="white"/>
<path d="M203.748 92.512C201.572 92.512 199.566 92.0853 197.732 91.232C195.897 90.336 194.318 89.0987 192.996 87.52C191.673 85.9413 190.692 84.1067 190.052 82.016V69.472C190.692 67.3387 191.673 65.504 192.996 63.968C194.318 62.3893 195.897 61.1733 197.732 60.32C199.566 59.424 201.572 58.976 203.748 58.976C206.606 58.976 209.166 59.7013 211.428 61.152C213.689 62.6027 215.481 64.5867 216.804 67.104C218.169 69.6213 218.852 72.5013 218.852 75.744C218.852 78.9867 218.169 81.8667 216.804 84.384C215.481 86.9013 213.689 88.8853 211.428 90.336C209.166 91.7867 206.606 92.512 203.748 92.512ZM187.748 104.544V59.744H192.42V71.712L191.652 75.744L192.548 79.776V104.544H187.748ZM203.556 87.84C205.604 87.84 207.417 87.328 208.996 86.304C210.574 85.28 211.812 83.872 212.708 82.08C213.604 80.2453 214.052 78.1333 214.052 75.744C214.052 73.3547 213.604 71.264 212.708 69.472C211.812 67.6373 210.574 66.208 208.996 65.184C207.417 64.16 205.604 63.648 203.556 63.648C201.465 63.648 199.588 64.16 197.924 65.184C196.26 66.208 194.937 67.6373 193.956 69.472C193.017 71.264 192.548 73.3547 192.548 75.744C192.548 78.1333 193.017 80.2453 193.956 82.08C194.937 83.872 196.26 85.28 197.924 86.304C199.588 87.328 201.465 87.84 203.556 87.84Z" fill="white"/>
<path d="M238.865 92.512C235.835 92.512 233.147 91.808 230.801 90.4C228.454 88.992 226.619 87.0293 225.297 84.512C223.974 81.9947 223.313 79.072 223.313 75.744C223.313 72.416 223.953 69.4933 225.233 66.976C226.555 64.4587 228.369 62.496 230.673 61.088C233.019 59.68 235.707 58.976 238.737 58.976C241.723 58.976 244.326 59.7013 246.545 61.152C248.806 62.56 250.577 64.5653 251.857 67.168C253.137 69.728 253.777 72.7147 253.777 76.128V76.704L252.817 77.6H226.129V72.928H250.961L248.849 73.824C248.678 71.6907 248.123 69.8773 247.185 68.384C246.246 66.848 245.051 65.6747 243.601 64.864C242.15 64.0533 240.529 63.648 238.737 63.648C236.774 63.648 234.982 64.1387 233.361 65.12C231.739 66.0587 230.459 67.4027 229.521 69.152C228.582 70.9013 228.113 72.928 228.113 75.232V76.064C228.113 78.368 228.561 80.416 229.457 82.208C230.395 83.9573 231.675 85.344 233.297 86.368C234.918 87.3493 236.774 87.84 238.865 87.84C240.955 87.84 242.747 87.3493 244.241 86.368C245.734 85.3867 246.907 84.0427 247.761 82.336H248.465L252.497 84.128C251.302 86.688 249.51 88.736 247.121 90.272C244.774 91.7653 242.022 92.512 238.865 92.512Z" fill="white"/>
<path d="M260.155 91.744V59.744H264.827V69.024L263.419 67.808C264.144 65.3333 265.531 63.3707 267.579 61.92C269.67 60.4693 272.016 59.744 274.619 59.744H277.947V64.416H273.851C272.102 64.416 270.544 64.8427 269.179 65.696C267.856 66.5493 266.811 67.7227 266.043 69.216C265.318 70.7093 264.955 72.4587 264.955 74.464V91.744H260.155Z" fill="white"/>
<path d="M294.165 91.744C291.519 91.744 289.343 90.8907 287.637 89.184C285.93 87.4773 285.077 85.1733 285.077 82.272V51.04H289.877V81.952C289.877 83.8293 290.261 85.152 291.029 85.92C291.839 86.688 293.162 87.072 294.997 87.072H298.965L299.285 87.776V91.744H294.165ZM279.573 64.416V59.744H299.285V64.416H279.573Z" fill="white"/>
<path d="M306 91.744V59.744H310.8V91.744H306ZM308.432 53.472C307.451 53.472 306.619 53.1307 305.936 52.448C305.253 51.7653 304.912 50.9333 304.912 49.952C304.912 48.9707 305.253 48.1387 305.936 47.456C306.619 46.7733 307.451 46.432 308.432 46.432C309.413 46.432 310.245 46.7733 310.928 47.456C311.611 48.1387 311.952 48.9707 311.952 49.952C311.952 50.9333 311.611 51.7653 310.928 52.448C310.245 53.1307 309.413 53.472 308.432 53.472Z" fill="white"/>
<path d="M332.742 92.512C329.713 92.512 327.025 91.808 324.678 90.4C322.331 88.992 320.497 87.0293 319.174 84.512C317.851 81.9947 317.19 79.072 317.19 75.744C317.19 72.416 317.83 69.4933 319.11 66.976C320.433 64.4587 322.246 62.496 324.55 61.088C326.897 59.68 329.585 58.976 332.614 58.976C335.601 58.976 338.203 59.7013 340.422 61.152C342.683 62.56 344.454 64.5653 345.734 67.168C347.014 69.728 347.654 72.7147 347.654 76.128V76.704L346.694 77.6H320.006V72.928H344.838L342.726 73.824C342.555 71.6907 342.001 69.8773 341.062 68.384C340.123 66.848 338.929 65.6747 337.478 64.864C336.027 64.0533 334.406 63.648 332.614 63.648C330.651 63.648 328.859 64.1387 327.238 65.12C325.617 66.0587 324.337 67.4027 323.398 69.152C322.459 70.9013 321.99 72.928 321.99 75.232V76.064C321.99 78.368 322.438 80.416 323.334 82.208C324.273 83.9573 325.553 85.344 327.174 86.368C328.795 87.3493 330.651 87.84 332.742 87.84C334.833 87.84 336.625 87.3493 338.118 86.368C339.611 85.3867 340.785 84.0427 341.638 82.336H342.342L346.374 84.128C345.179 86.688 343.387 88.736 340.998 90.272C338.651 91.7653 335.899 92.512 332.742 92.512Z" fill="white"/>
<path d="M364.273 92.512C360.987 92.512 358.214 91.7227 355.953 90.144C353.691 88.5227 352.198 86.2613 351.473 83.36L355.889 82.272L356.593 82.4C357.062 84.1067 358.043 85.4507 359.537 86.432C361.03 87.3707 362.779 87.84 364.785 87.84C366.79 87.84 368.497 87.392 369.905 86.496C371.355 85.5573 372.081 84.3413 372.081 82.848C372.081 81.6107 371.654 80.6293 370.801 79.904C369.99 79.136 368.753 78.56 367.089 78.176L361.201 76.832C358.214 76.1493 356.017 75.0613 354.609 73.568C353.243 72.032 352.561 70.2187 352.561 68.128C352.561 66.336 353.051 64.7573 354.033 63.392C355.014 62.0267 356.358 60.96 358.065 60.192C359.814 59.3813 361.798 58.976 364.017 58.976C367.259 58.976 369.99 59.7867 372.209 61.408C374.427 63.0293 375.899 65.312 376.625 68.256L372.145 69.216L371.441 69.088C371.014 67.3387 370.075 65.9947 368.625 65.056C367.217 64.1173 365.638 63.648 363.889 63.648C362.054 63.648 360.518 64.0533 359.281 64.864C358.086 65.6747 357.489 66.6987 357.489 67.936C357.489 69.0027 357.873 69.8987 358.641 70.624C359.451 71.3067 360.731 71.84 362.481 72.224L368.433 73.568C371.377 74.2507 373.531 75.3387 374.897 76.832C376.305 78.3253 377.009 80.224 377.009 82.528C377.009 84.576 376.454 86.3467 375.345 87.84C374.235 89.3333 372.721 90.4853 370.801 91.296C368.923 92.1067 366.747 92.512 364.273 92.512Z" fill="white"/>
<path d="M39.75 18.244C58.3896 18.244 73.5 33.3543 73.5 51.994V85.744H39.75C21.1104 85.744 6 70.6336 6 51.994C6 33.3543 21.1104 18.244 39.75 18.244Z" stroke="#3FFAAA" stroke-width="12"/>
</svg>
